HIERARCHY
ROOT Hips
{
   OFFSET 0.00000 0.00000 0.00000
   CHANNELS 6 Xposition Yposition Zposition Zrotation Xrotation Yrotation
   JOINT Spine
   {
      OFFSET 0.000000 15.457650 0.000000
      CHANNELS 3 Zrotation Xrotation Yrotation
      JOINT Spine1
      {
         OFFSET -0.000000 33.354620 0.165958
         CHANNELS 3 Zrotation Xrotation Yrotation
         JOINT HEad
         {
            OFFSET 0.000000 11.354408 0.014742
            CHANNELS 3 Zrotation Xrotation Yrotation
            End Site
            {
               OFFSET -0.377000 16.606459 3.268135
            }
         }
         JOINT LeftShoulder1
         {
            OFFSET 11.687000 -0.470925 -0.286000
            CHANNELS 3 Zrotation Xrotation Yrotation
            JOINT LeftArm
            {
               OFFSET 13.367510 -0.004394 0.418756
               CHANNELS 3 Zrotation Xrotation Yrotation
               JOINT LeftForeArm
               {
                  OFFSET 42.596969 0.128882 -1.851642
                  CHANNELS 3 Zrotation Xrotation Yrotation
                  JOINT LeftHand
                  {
                     OFFSET 35.833589 0.110968 1.328808
                     CHANNELS 3 Zrotation Xrotation Yrotation
                     End Site
                     {
                        OFFSET 21.767590 -0.780000 1.953783
                     }
                  }
               }
            }
         }
         JOINT RightShoulder
         {
            OFFSET -11.687000 -0.470925 -0.286000
            CHANNELS 3 Zrotation Xrotation Yrotation
            JOINT RightArm
            {
               OFFSET -13.367510 -0.004394 0.418756
               CHANNELS 3 Zrotation Xrotation Yrotation
               JOINT RightForeArm
               {
                  OFFSET -42.766227 0.128882 -1.851642
                  CHANNELS 3 Zrotation Xrotation Yrotation
                  JOINT RightHand
                  {
                     OFFSET -35.739729 0.110968 1.328808
                     CHANNELS 3 Zrotation Xrotation Yrotation
                     End Site
                     {
                        OFFSET -21.620562 -0.780000 1.953783
                     }
                  }
               }
            }
         }
      }
   }
   JOINT LeftUpLeg
   {
      OFFSET 11.629540 -11.267191 0.132145
      CHANNELS 3 Zrotation Xrotation Yrotation
      JOINT LeftLeg
      {
         OFFSET 0.000000 -57.749504 1.784510
         CHANNELS 3 Zrotation Xrotation Yrotation
         JOINT LeftFoot
         {
            OFFSET -0.329615 -54.720115 -1.898767
            CHANNELS 3 Zrotation Xrotation Yrotation
            JOINT LeftToes
            {
               OFFSET -0.052000 -5.739617 11.048829
               CHANNELS 3 Zrotation Xrotation Yrotation
               End Site
               {
                  OFFSET 0.104000 -0.061685 12.713727
               }
            }
         }
      }
   }
   JOINT RightUpLeg
   {
      OFFSET -11.629540 -11.267191 0.132145
      CHANNELS 3 Zrotation Xrotation Yrotation
      JOINT RightLeg
      {
         OFFSET 0.000000 -57.749504 1.784510
         CHANNELS 3 Zrotation Xrotation Yrotation
         JOINT RightFoot
         {
            OFFSET 0.329615 -54.720115 -1.898767
            CHANNELS 3 Zrotation Xrotation Yrotation
            JOINT RightToes
            {
               OFFSET 0.052000 -5.739617 11.048829
               CHANNELS 3 Zrotation Xrotation Yrotation
               End Site
               {
                  OFFSET -0.104000 -0.178685 12.713727
               }
            }
         }
      }
   }
}
MOTION
Frames: 10
Frame Time: 0.016670
-67.497715 101.666573 -9.990908 29.166448 63.853833 151.642740 29.688694 72.215925 110.103442 6.670924 2.913236 -154.689919 -26.228606 44.156777 2.789646 36.538278 51.532712 -59.110916 404.585654 -70.654284 360.356081 27.103362 5.820852 -30.800079 -9.067553 -76.369697 -48.686487 72.548002 113.854056 -21.316230 76.921563 202.566690 166.913130 23.259936 280.607394 76.958631 7.041566 1.372773 32.627291 12.214596 37.545844 26.233474 27.757827 16.889331 125.038333 -54.002826 145.292754 17.262454 26.384109 -23.048721 -75.976094 -38.056721 64.531559 60.678793 35.280099 10.200402 -45.256086 -8.979727 10.209320 19.912059 -37.018324 -98.544064 -36.398874
-68.255652 100.604123 -12.173163 30.652000 64.464336 150.929873 33.159660 72.893917 110.236665 5.656718 3.963600 -155.157883 -26.539400 43.789511 3.121818 37.673128 51.453642 -59.401943 402.183887 -69.478364 355.279721 28.003426 6.878394 -30.073149 -13.902304 -74.797504 -49.839843 70.923933 112.425727 -20.405914 77.523979 203.508082 168.097991 23.876528 281.522912 76.667938 6.973505 1.556025 38.052370 11.252521 38.092494 24.041013 29.153518 16.120515 127.802538 -57.753027 144.651973 17.056212 25.873139 -22.317117 -74.567743 -39.351524 65.571838 61.944679 35.739955 12.035358 -44.979623 -8.485646 9.839693 19.781845 -37.213907 -99.396499 -37.026490
-69.168590 99.644736 -14.578385 32.344084 65.710579 151.099152 36.672266 70.329789 110.003700 5.310057 6.433766 -157.293328 -26.147154 39.752138 3.458982 36.196434 52.329894 -65.357629 400.222065 -71.692008 352.212529 29.758438 6.194657 -29.388299 -18.289209 -72.386147 -56.209769 69.223387 110.851211 -21.058916 77.828831 201.904517 169.507059 22.640127 279.440360 72.071138 6.479470 1.190959 43.836868 10.432795 38.732118 21.402765 31.114971 15.953667 130.228007 -58.688305 143.959460 16.087548 23.521128 -21.679162 -74.132148 -41.477184 68.041470 63.306175 35.713000 12.822799 -44.549666 -8.172087 9.161019 19.396487 -36.926072 -100.100370 -37.080943
-70.153312 98.792399 -17.289096 34.062003 64.530241 150.357858 39.484422 70.438143 109.640341 3.399019 9.427544 -160.128116 -25.362255 39.146406 3.780111 34.602606 52.798513 -69.250755 399.307503 -71.927718 351.355832 32.596538 2.844303 -27.259119 -23.565174 -71.153824 -63.872610 66.820649 111.336865 -21.132708 76.390646 199.956520 170.200500 21.555556 276.449721 68.448952 5.241207 0.561803 47.844621 9.951394 37.964483 18.400533 33.820044 16.172095 132.349942 -60.921210 142.433309 13.971427 23.266961 -21.092621 -74.367113 -42.242032 68.296994 64.641627 36.180000 12.865756 -43.918403 -8.175472 8.294578 18.766553 -36.087656 -101.051979 -36.434128
-71.274890 98.041104 -20.001747 34.692795 64.538232 147.746636 43.651230 71.085761 105.804883 4.305607 6.522280 -162.942700 -23.872845 41.460898 3.965296 36.233607 52.939464 -64.124528 398.911406 -74.416728 355.278546 31.682048 5.694155 -25.926966 -26.509808 -69.531626 -65.585935 66.855852 116.176860 -23.011025 75.792765 197.463624 170.381965 18.239392 267.639897 67.012892 9.215046 -0.721539 44.596600 8.017093 39.500541 16.835364 33.392358 17.688373 133.885682 -60.857047 140.842940 12.971868 23.012881 -20.816543 -74.403040 -45.786566 67.663925 67.652518 34.774064 15.784495 -43.572256 -8.428888 7.096869 17.261268 -34.034115 -102.849303 -35.609553
-72.523722 97.503594 -22.737400 36.497239 64.096674 146.277408 44.837060 72.705793 104.213100 3.638138 4.626937 -163.785915 -23.866583 39.924631 4.611855 35.883089 54.699536 -59.250942 402.073265 -78.904299 361.005960 33.214752 8.072288 -31.431489 -26.807362 -69.209651 -66.794312 67.143758 121.584935 -25.535366 77.181445 192.148521 169.695066 13.609948 256.999391 64.214017 11.398326 -2.211231 43.591910 7.902631 39.844175 15.475750 33.254111 19.594010 135.845783 -61.197020 138.254722 11.309231 23.192604 -21.460197 -74.731955 -45.466100 67.398196 70.067134 35.466369 16.627959 -41.992437 -26.164843 5.372968 15.893990 -17.371498 -104.788831 -35.118668
-73.841370 97.098092 -25.189008 39.836293 62.385459 141.466919 45.129847 77.111490 101.201567 1.043835 2.713102 -164.296184 -23.162285 37.394729 5.135703 33.196741 58.522884 -51.397232 408.037714 -83.991383 371.594803 35.351768 8.873141 -36.682388 -26.397694 -68.576431 -62.949523 66.919926 128.611219 -27.276272 80.919908 184.118063 169.169838 8.639447 245.666878 61.397759 12.331762 -3.666508 44.626899 8.444919 40.649796 15.611941 32.443122 21.487428 136.281194 -61.815159 134.698762 8.797627 24.090480 -22.569045 -75.583413 -46.084738 65.924508 71.698449 33.362452 19.853734 -40.893432 -19.251421 6.252562 13.380766 -22.065420 -104.546400 -34.454090
-75.028633 98.417614 -27.154197 42.876113 58.206735 135.485026 47.780541 80.041675 101.231012 5.111186 -1.367336 -161.753278 -23.152144 39.325842 5.640231 26.883384 59.070638 -45.708152 419.079971 -88.320008 377.209273 35.732958 8.435197 -42.790701 -27.511013 -67.004436 -64.945748 70.064886 126.017619 -28.997616 86.099398 172.952165 167.919955 4.580514 233.474908 63.777889 10.141649 -0.493449 43.206708 8.405991 40.902998 16.020975 31.237423 22.878892 135.189238 -61.474168 130.085898 5.429609 23.039927 -24.309647 -74.749023 -44.994735 62.613321 72.376564 31.099658 21.698726 -39.740038 -13.925301 7.879115 10.166591 -17.766534 -99.448934 -25.181499
-76.316603 99.891718 -28.769676 48.834821 54.894872 130.402969 44.911024 75.060535 103.380398 6.765152 0.893721 -159.070243 -22.468165 38.330055 6.048330 24.904048 62.100934 -36.903167 438.171826 -90.649308 396.330415 36.144658 10.705696 -48.022848 -31.093053 -62.004519 -68.230544 74.928978 115.987049 -28.738656 100.776832 159.469153 172.342612 4.173726 221.481766 70.227800 8.771333 8.350587 33.807661 11.032204 41.495431 15.643765 31.779907 25.143221 132.414760 -59.738201 125.714413 3.295124 21.631117 -26.617066 -73.213556 -43.664460 62.285151 71.652502 30.188852 20.778660 -37.526364 -9.331102 10.066914 7.255513 -16.929807 -91.089814 -18.428146
-77.712907 101.069516 -30.049297 51.623584 55.281567 126.579811 42.804341 73.290156 107.670105 11.553225 -5.346277 -155.421815 -19.574941 36.056135 6.003233 20.920306 60.448820 -32.356525 469.556272 -85.484879 428.324660 37.426974 8.098776 -46.932620 -30.455701 -61.967806 -73.152637 79.105885 117.904324 -28.457495 110.293314 139.276833 169.939095 -0.980076 203.341767 77.105575 4.825328 12.266514 35.805108 11.754128 43.841109 15.932617 28.173060 28.583565 126.716046 -57.548305 123.017758 1.061063 20.236387 -29.434751 -72.237843 -45.710976 62.544882 72.881452 27.393379 22.739745 -34.027873 -4.704075 11.245982 4.546583 -18.335848 -81.799992 -14.548455
